<?xml version="1.0" standalone="no"?><svg xmlns="http://www.w3.org/2000/svg" viewBox="0 0 1440 320"><path fill="#202833" fill-opacity="1" d="M0,256L26.7,250.7C53.3,245,107,235,160,240C213.3,245,267,267,320,250.7C373.3,235,427,181,480,160C533.3,139,587,149,640,160C693.3,171,747,181,800,186.7C853.3,192,907,192,960,202.7C1013.3,213,1067,235,1120,250.7C1173.3,267,1227,277,1280,245.3C1333.3,213,1387,139,1413,101.3L1440,64L1440,320L1413.3,320C1386.7,320,1333,320,1280,320C1226.7,320,1173,320,1120,320C1066.7,320,1013,320,960,320C906.7,320,853,320,800,320C746.7,320,693,320,640,320C586.7,320,533,320,480,320C426.7,320,373,320,320,320C266.7,320,213,320,160,320C106.7,320,53,320,27,320L0,320Z"></path></svg>