<?xml version="1.0" standalone="no"?><svg xmlns="http://www.w3.org/2000/svg" viewBox="0 0 1440 320"><path fill="#0B0C10" fill-opacity="1" d="M0,64L30,96C60,128,120,192,180,181.3C240,171,300,85,360,69.3C420,53,480,107,540,117.3C600,128,660,96,720,101.3C780,107,840,149,900,170.7C960,192,1020,192,1080,192C1140,192,1200,192,1260,197.3C1320,203,1380,213,1410,218.7L1440,224L1440,0L1410,0C1380,0,1320,0,1260,0C1200,0,1140,0,1080,0C1020,0,960,0,900,0C840,0,780,0,720,0C660,0,600,0,540,0C480,0,420,0,360,0C300,0,240,0,180,0C120,0,60,0,30,0L0,0Z"></path></svg>