<?xml version="1.0" standalone="no"?><svg xmlns="http://www.w3.org/2000/svg" viewBox="0 0 1440 320"><path fill="#202833" fill-opacity="1" d="M0,160L21.8,154.7C43.6,149,87,139,131,128C174.5,117,218,107,262,117.3C305.5,128,349,160,393,144C436.4,128,480,64,524,69.3C567.3,75,611,149,655,197.3C698.2,245,742,267,785,277.3C829.1,288,873,288,916,277.3C960,267,1004,245,1047,245.3C1090.9,245,1135,267,1178,261.3C1221.8,256,1265,224,1309,213.3C1352.7,203,1396,213,1418,218.7L1440,224L1440,0L1418.2,0C1396.4,0,1353,0,1309,0C1265.5,0,1222,0,1178,0C1134.5,0,1091,0,1047,0C1003.6,0,960,0,916,0C872.7,0,829,0,785,0C741.8,0,698,0,655,0C610.9,0,567,0,524,0C480,0,436,0,393,0C349.1,0,305,0,262,0C218.2,0,175,0,131,0C87.3,0,44,0,22,0L0,0Z"></path></svg>